<svg width="148" height="137" viewBox="0 0 148 137" fill="none" xmlns="http://www.w3.org/2000/svg">
    <g transform="translate(20.000000,137.000000) scale(0.0400000,-0.0400000)" fill="#FFFFFF" stroke="none">
        <path class="node" id="node1" d="M1172 2861 c-151 -284 -166 -605 -45 -971 46 -139 54 -155 142 -299
99 -163 130 -326 92 -485 -12 -49 -30 -109 -41 -133 l-19 -44 85 -40 c47 -21
91 -39 98 -39 14 0 37 52 64 145 31 108 34 130 34 251 0 93 -5 131 -28 210
-28 102 -81 214 -140 300 -19 28 -50 91 -69 141 -125 332 -122 610 10 865 19
37 35 69 35 71 0 6 -140 94 -161 102 -11 4 -27 -18 -57 -74z"></path>
        <path class="node" id="node2" d="M1726 2693 c-97 -137 -156 -334 -141 -472 21 -202 84 -362 227 -581
30 -47 65 -107 78 -135 71 -160 76 -342 14 -501 -13 -33 -24 -65 -24 -70 0
-10 156 -84 176 -84 15 0 55 102 80 200 27 105 25 286 -4 393 -27 99 -85 223
-150 319 -219 325 -246 603 -79 821 21 26 37 51 37 55 -1 4 -24 25 -52 47 -28
22 -63 50 -79 63 l-28 23 -55 -78z"></path>
        <path class="node" id="node3" d="M582 2663 c-67 -139 -93 -238 -99 -385 -7 -150 6 -245 49 -368 37
-103 76 -183 130 -262 53 -77 74 -118 103 -198 33 -94 36 -114 36 -223 -1 -84
-6 -113 -34 -199 l-34 -100 85 -40 c47 -21 91 -37 98 -34 13 5 47 89 70 176
22 80 29 255 14 347 -20 129 -60 218 -191 431 -149 241 -163 512 -40 763 l39
79 -83 50 c-45 27 -87 50 -92 50 -5 0 -28 -39 -51 -87z"></path>
        <path class="node" id="node4" d="M375 1268 c-270 -148 -419 -401 -360 -610 53 -191 186 -332 426 -453
340 -172 832 -241 1284 -180 302 40 571 131 760 257 84 56 190 162 231 231 39
66 74 181 74 242 0 54 -32 162 -67 227 -50 94 -270 293 -302 274 -5 -4 -10
-56 -10 -116 l-1 -110 60 -62 c78 -80 104 -134 104 -213 0 -324 -663 -586
-1349 -535 -609 45 -1061 305 -1006 579 16 77 53 130 154 219 l38 34 -3 114
c-1 63 -5 114 -8 114 -3 0 -14 -6 -25 -12z"></path>
    </g>
</svg>